<?xml version="1.0" encoding="UTF-8"?>
<svg id="Layer_1" data-name="Layer 1" xmlns="http://www.w3.org/2000/svg" viewBox="0 0 1626.36 543.09">
  <g id="Logo_Name" data-name="Logo Name">
    <rect x="662.91" y="433.48" width="321.47" height="1.92" fill="#fff"/>
    <g id="Labs">
      <path d="M1201.15,449.94c-.34,4.52-3.16,9.57-8.5,10.19-9.26,1.08-18.35,1.27-27.96,1.07l-.15-40.7,24.7.51c4.74.1,8.27,3.64,9.4,7.45,1.36,4.6-1.1,8.5-4.92,11.88,4.61,1.63,7.83,4.31,7.44,9.59h0ZM1191.79,431.29c-1.49-7.49-12.21-4.45-19.73-5.43l-.29,11.15c4.72.92,21.71,2.74,20.02-5.72h0ZM1194.15,449.24c.04-1.83-2.79-4.91-5.09-4.95l-17.07-.31-.18,11.59c7.64-.87,22.16,2.56,22.35-6.33h-.01Z" fill="#fff"/>
      <path d="M1101.93,451.89l-4.68,9.43-4.44-1.34c3.31-9.37,7.45-17.72,11.46-26.86l5.13-11.68c2.22-.56,5.01-.97,8.02-1.26,6.45,12.52,12.2,25.11,17.51,38.35.4,1.01-1.89,3.28-2.83,3.06s-2.72-1.41-3.27-2.57l-3.32-7.05-23.58-.08h0ZM1122.38,445.86l-9.11-17.71-8.03,17.74,17.14-.04h0Z" fill="#fff"/>
      <path d="M1261.16,446.83c1.67,6.93-4.69,14.5-14.26,14.78-6.91.2-12.94-1.03-19.33-4.73.39-1.4,2.33-3.76,3.87-4.56,6.55,4.57,23.53,5.33,22.25-2.91-1.36-8.77-23.99-2.5-24.43-17.32-.15-4.88,2.63-8.59,7.49-10.75,6.48-2.88,16.06-1.64,22.14,1.84.79,11.2-9.13-1.98-19.18,3.2-1.64.84-3.39,3.14-3.59,4.8-.96,8.24,22.19,3.93,25.02,15.66h.02Z" fill="#fff"/>
      <path d="M1065.49,461.21l-27.84.14-.36-39.71,6.29-1.25.74,35.03,21.99.19c1.05,0,.42,5.59-.82,5.6h0Z" fill="#fff"/>
    </g>
    <rect x="1286.18" y="433.05" width="340.18" height="1.39" fill="#fff"/>
    <g id="Cactus_Logo" data-name="Cactus Logo">
      <path d="M575,457.84c-.35.74-.72,1.84-.83,2.12-.16.42-1.48-.02-1.55-.47s-.04-1.71.13-2.13l6.98-17.22c12.12-29.9,17.1-77.27,12.73-110.52-2.72-20.72-10.19-51.63-18.42-70.73-9.94-23.08-21.64-44.9-36.73-64.94-8.1-10.75-16.83-20.03-25.85-29.85-3.67-3.99-8.75-6.25-10.63-12.82,8.43,2.18,25.17,22.37,31.84,30.01,6.23,7.14,11.31,14.84,16.89,22.58,6.7,9.28,11.82,18.75,17.02,28.96,9.74,19.08,17.47,38.22,22.3,59.21,3.48,15.13,6.95,29.84,8.13,45.29,1.6,20.98-.19,40.59-3.97,61.02-3.83,20.68-8.84,40.1-18.03,59.47v.02h-.01Z" fill="#fff"/>
      <path d="M693.29,490.04c-39.79,4.86-109.23,4.08-145.75-9.85l-34.67-13.22c-17.68-6.74-35.93-8.24-54.8-5.53-9.26,1.33-17.69,4.51-26.29,8.08-4.06,1.69-8.44,3.25-12.59,1.9.46-2.81,3.18-1.92,5.04-2.58l22.02-7.83c19.91-7.08,42.58-5.95,62.43,1.45l41.2,15.37c28.24,10.53,78.22,12.89,108.67,11.64l16.75-.69c5.8-.24,12.26-2.88,17.98,1.26h.01Z" fill="#fff"/>
      <path d="M106.52,471.96c-16.78,5.37-32.5,7.8-49.71,8.86-8.35.51-54.18,2.19-56.78-2.74-.27-.52,1.7-1.52,2.65-1.38,15.79,2.32,34.07,2.23,50.53,1.36,20.22-1.07,38.67-4.37,57.79-10.56l39.36-12.74c16.48-5.34,32.66-9.42,49.93-11.26,8.21-.87,15.59-.21,24.23-.03,11.95.25,26.36,6.48,34.09,14.85.39.42-.29,2.22-.71,2.03-6.32-2.78-13.18-12.53-32.06-13.7-9.58-.59-18.46-1.12-27.96.14-14.12,1.86-27.48,4.73-41.05,9.07l-50.31,16.09h0Z" fill="#fff"/>
      <path d="M99.61,345.02c1.53,28.13,6.23,68.16,17.23,93.21.26.59.49,1.94.55,2.27s-1.01.41-1.86.44c-4.76-9.79-8.03-20.42-10.12-31.21-6.63-34.26-11.83-74.54-5.17-108.59,8.37-42.73,30.86-99.25,66.5-126.08,9.12-6.87,17.05-13.56,27.32-19.02l-26.37,21.1c-10.4,8.66-19.44,18.78-27.08,30.1-25.13,37.25-43.46,92.92-41.02,137.78h.02Z" fill="#fff"/>
      <path d="M329.03,507.24c-27.93-8.82-55.42-10.92-83.79-5.5l-19.53,3.73c-26.12,4.99-51.27,12.45-77.69,15.15l-27.95,2.86c5.88-2.23,12.02-2.39,18.49-3.63l46.73-8.96c30.35-5.82,60.07-15.25,92.3-16.44l.37-40.38c1.08-11.47.06-22.39,0-34.05l-.43-78.9c-29.24-5.56-53.56-24.37-66.41-51.38-4.05-8.51-5.39-17.65-7.37-27.1l-.12-99.72c-.01-8.92-.3-17.19-.75-25.94-.6-11.45,4.19-21.17,13.68-27.72,6.99-4.82,16.2-5.9,24.86-4.29,12.81,2.38,23.47,12.65,23.54,26.34l.64,117.6c.1,17.93,16.09,31.52,32.19,33.5.52-5.27.91-9.28.89-14.13l-.46-148.5.07-73.98c.01-14.71,3.48-27.81,15.23-37,11.03-8.63,26.05-11.24,39.97-6.38,14.81,5.18,26.19,17.92,26.2,34.45l.08,130.14.42,60.94c12.07,0,26.73-6.89,34.62-15.28,5.08-5.4,9.61-14.08,9.59-21.97l-.21-105.52c-.03-17.27,11.24-31.86,29.21-33.05,14.89-.98,32.83,8.81,32.88,25.87l.35,120.3c.1,34.36-27.98,67.23-60.24,78.71-7.52,2.68-14.62,4.25-22.85,6.46l.16,42.19-.04,100.52-.27,99.58c10.71,2.38,20.62,5.9,31.61,7.67,26.9,4.34,53.62,6.32,80.73,7.16l16.79.52-.18,1.98-32.04-.98-17.28-.85c-30.77-1.51-60.01-4.35-89.36-13.62l-64.62-20.4h-.01,0ZM304.11,460.63l-.2,13.26-.18,22.29c6.89,1.6,12.43,2.83,18.82,4.72l51.99,15.4-.05-478.86c0-8.91-5.75-16.1-10.43-22.42-11.25-9.44-26.56-12.78-40.22-6.35-8.88,4.18-16.9,13.03-18.81,22.79-2.93,14.91-.73,28.9-.74,44.15l-.03,187.78-.23,8.88.16,18.31-.04,123.53v12.64l-.04,33.88h0ZM379.56,505.4c0,4.69.35,8.76.59,13.37l18.45,4.58-.14-243.99c10.25-1.99,18.92-4.42,27.86-7.98,26.62-10.6,51.18-35.26,54.18-64.48,1.78-17.4.7-34.21.75-51.75l.21-72.91c.04-15.02-14.18-25.34-27.4-24.86-12.24.45-23.27,10.58-23.8,22.76l-.67,15.51v45.13c.01,18.38,1.56,36.08-1.01,54.34-1.48,10.56-8.31,20.76-16.52,27.02-9.39,7.17-20.24,9.34-31.77,11.8-1.15,23.89-.35,47.09-.45,70.89l-.2,47.44v61.69l-.09,91.42v.02h.01,0ZM281.91,494.09l16.76,1.18-.03-201.53c0-1.41-.52-3.67-1.08-4.47.57.82-37.28-10.16-37.48-38.67l-.21-30.24-.86-89.09c-.13-13.28-12.66-22.25-25.12-22.17-10.88.07-24.69,8.42-24.75,21.44l-.56,121.44c-.05,11.48,2,21.77,6.18,32.14,3.63,10.72,10.09,19.31,17.82,27.46,13.3,14.02,30.06,22.6,49.72,24.94l-.59,56.62.09,47.99.12,52.95h-.01Z" fill="#fff"/>
    </g>
    <g id="Purple_Cactus" data-name="Purple Cactus">
      <path d="M745.28,322.66c-13.12,14.08-34.07,11.88-51.78,12.44l-.64,36.33-16.71-.36.14-19.31.42-86.18c14.1-1.35,28.03-2.07,41.86-1.48,9.99.42,18.91,3.77,26.32,10.09,11.14,11.31,11.39,36.67.39,48.47h0ZM732.31,312.03c5.38-7.79,5.05-18.16.55-25.79-7.2-12.2-27.41-8.75-39.68-8.19v43.63l18.28.3c7.73.13,16.19-3.2,20.85-9.95h0Z" fill="#fff"/>
      <path d="M929.39,369.39l-.27,29.9-16.26,1.14.03-98.37,12.15-1.28.75,5.34c16.22-10.41,45.57-11.14,56.46,7.14,7.2,12.09,7.81,27.45,2.49,40.21-9.09,21.77-33.37,23.75-55.35,15.93h0ZM954.22,360.84c10.56-2.54,16.38-12.21,17.22-22.35.8-9.66-2.76-19.55-11.51-24.13-9.94-5.2-21.61-2.97-30.79,2.95l.19,32.69c.01,1.9,1.04,4.77,1.8,6.79,6.91,3.73,14.81,6.04,23.09,4.05Z" fill="#fff"/>
      <path d="M1213.95,360.24c11.41,1.81,20.94-1.33,31.26-4.76l3.62,11.64c-13.16,8.28-35.6,7.93-49.66,3.7-13.01-3.91-23.56-12.23-29.16-24.83-11.58-26.1-5.7-62.5,20.87-77.05,17.62-9.65,39.35-8.44,57.68-.8l-4.14,12.37-14.08-3.32c-10.55-2.49-22.87-1.28-31.89,5.18-16.16,11.57-18.28,34.29-13.26,52.63,3.69,13.5,14.64,23,28.75,25.25h.01Z" fill="#fff"/>
      <path d="M1076.05,361.01c9.3,1.4,18.06-.91,26.85-3.1l2.74,10.35c-8.38,4.2-17.35,4.73-26.76,4.93-11.07.24-21.7-3.02-29.53-10.91-6.91-6.96-8.72-16.19-8.95-25.66-.54-22.3,16.41-38.93,38.53-37.83,10.22.51,19.75,3.21,25.98,11.95,6.07,8.52,8.09,19.01,5.6,29.64l-52.82.14c-.14,10.46,7.5,18.86,18.37,20.49h-.01ZM1075.59,329.33l19.54-.09c1.12-10.4-7.39-18.84-18.19-18.7-10.54.14-19.01,7.65-19.09,18.39l17.74.4h0Z" fill="#fff"/>
      <path d="M1265.05,365.57c-6.24-7.09-6.58-18.8-1.1-26.16,10.05-13.51,28.33-11.43,43.62-11.34,1-3.12.78-7.63-1.36-10.95-6.04-9.35-24.96-5.54-34.92-2.63-1.43-2.88-2.62-5.96-3.87-10.23,12.38-5.36,26.27-6.93,39.23-3.9s18.26,13.73,18.14,25.64l-.42,44.97-12.29.55c-.97.04-2.76-2.37-3.25-3.36-11.23,5.79-33.8,8.77-43.79-2.58h.01ZM1308.38,357.39l-.22-18.34c-10.93-1.66-32.66-2.15-31.72,12.36.37,5.64,4.3,10.42,10.63,11.25,7.08.93,15.42-.36,21.32-5.27h-.01Z" fill="#fff"/>
      <path d="M769.42,301.1l16.05-.11.44,43.26c.07,6.9,2.54,13.29,9.94,15.71,7.26,2.38,21.25-1.87,22.56-10.9,2.33-16.03,0-31.64,1-47.92l16.37-.34-.43,70.45-12.99.37-2.1-6.46c-11.18,8.34-26.84,11.66-39.78,4.8-7.94-4.21-11.43-13.98-11.37-22.78l.31-46.08h0Z" fill="#fff"/>
      <path d="M1544.89,300.95l.35,70.06-13.66.53-1.89-6.99c-12.29,9.96-39.69,14.85-47.78-2.25-1.88-3.98-3.51-9.49-3.51-14.18v-47.04l15.98-.15,1.22,46.85c.21,7.99,7.24,13.76,15.39,12.78,5.71-.69,16.16-4.93,16.93-11.79,1.8-15.98.11-31.48.91-47.66l16.06-.16h0Z" fill="#fff"/>
      <path d="M1616.61,351.9c-.37,15.84-14.43,21.13-28.12,21.33-9.45.14-17.72-.89-26.55-4.77l4.03-10.23c9.35,3.23,31.12,8.09,34.63-3.63,1.38-4.59-2.41-9.37-6.88-10.83l-16.66-5.48c-8.7-2.86-13.89-10.02-13.74-18.55.16-8.93,5.25-16.19,14.55-18.89,11.93-3.46,24.22-2.19,35.99,2.78-1.36,3.71-2.72,6.9-4.25,9.95-8.28-2.97-27.89-6.17-30.07,4.13-3.02,14.27,37.64,8.6,37.04,34.18h.03,0Z" fill="#fff"/>
      <path d="M1462.68,370.65c-5.95,2.22-11.11,2.59-17.24,2.44-9.21-.23-18.03-6.42-18.1-16.49l-.27-43.39-14.43-1.41,1.69-10.8,12.66-1.27.86-17.03,14.43-4.3,1.52,21.52,19.48,1.12.04,11.29-19.77.86v39.59c-.01,3.5,3.83,7.11,6.36,8,3.3,1.16,7.78.71,11.6-.6l1.16,10.46h.01Z" fill="#fff"/>
      <path d="M1387.49,360.97l12.53-2.28,3.29,10.57c-8.93,3.4-17.58,3.89-27.01,3.91-17.41.03-31.97-11.48-34.54-28.94-1.36-9.25-.33-19.21,4.45-27.4,11.63-19.95,39.1-21.86,57.95-13.15l-4.75,11.15c-11.12-3.95-24.1-5.12-33.59,2.75-6.91,5.73-8.49,16.23-6.79,24.65,2.68,13.34,15.07,21.2,28.46,18.76v-.02h0Z" fill="#fff"/>
      <rect x="960.45" y="310.1" width="107.52" height="16.35" transform="translate(695.59 1332.37) rotate(-89.98)" fill="#fff"/>
      <path d="M874.51,371.1c-5.76.74-10.57.95-16.66.6l-.13-70.31,13.58-1.14,1.79,9.96c5.54-7.31,14.66-10.99,24.42-11.1l-.02,14.11c-10.67.95-22.9,4.13-22.92,16.52l-.07,41.37h.01Z" fill="#fff"/>
    </g>
  </g>
</svg>